<svg xmlns="http://www.w3.org/2000/svg" width="322" height="165" viewBox="0 0 322 165">
    <g fill="none" fill-rule="evenodd">
        <g fill-rule="nonzero">
            <g transform="translate(-799 -205) translate(799.161 205.322)">
                <path fill="#C9C9C9" d="M133.33 119.596s11.934 19.763 43.8 15.089c31.864-4.674 36.301-39.076 36.301-39.076-20.275 31.05-47.567 37.85-80.1 23.987z"/>
                <path fill="#00243D" d="M68.846 134.265c-2.414 0-4.476-.084-6.15-.252-1.673-.167-3.051-.438-4.07-.786-1.116-.382-1.878-.87-2.335-1.49-.455-.624-.694-1.38-.68-2.153V106.8H6.502c-.92.012-1.836-.116-2.718-.38-.893-.283-1.644-.921-2.232-1.896-.554-.92-.946-2.18-1.194-3.857C.121 99.08 0 96.94 0 94.306c0-2.146.051-4.023.152-5.604.086-1.454.257-2.902.513-4.336.232-1.27.58-2.518 1.038-3.725.492-1.26 1.06-2.49 1.7-3.682l.008-.017 40.413-71.38c.39-.708 1.055-1.322 1.972-1.82.865-.466 2.06-.862 3.552-1.174 1.46-.306 3.336-.537 5.574-.67 2.238-.135 4.961-.205 8.087-.205 3.404 0 6.364.086 8.793.254 2.43.168 4.436.45 5.9.825 1.547.402 2.665.884 3.418 1.485.835.67 1.259 1.49 1.259 2.436v77.75h10.86c1.341 0 2.477.954 3.362 2.836.82 1.744 1.216 4.507 1.216 8.448 0 3.467-.37 6.168-1.098 8.006-.805 2.04-1.98 3.076-3.486 3.076H82.379v22.785c.01.79-.255 1.56-.753 2.176-.492.611-1.284 1.091-2.422 1.475-1.053.346-2.414.609-4.062.783-1.648.174-3.758.237-6.296.237zM4.578 77.593c-.61 1.142-1.153 2.32-1.623 3.527-.43 1.13-.754 2.297-.97 3.486-.248 1.382-.413 2.777-.495 4.178-.1 1.551-.15 3.407-.15 5.517 0 2.568.116 4.641.345 6.168.219 1.475.56 2.608 1.017 3.363.42.697.906 1.125 1.487 1.309.75.223 1.53.331 2.314.319h49.778c.37 0 .67.3.67.67v23.456c-.013.487.135.964.421 1.358.28.382.863.733 1.688 1.016.923.315 2.192.557 3.772.72 1.628.163 3.652.246 6.014.246 2.494 0 4.566-.083 6.167-.246 1.546-.163 2.816-.402 3.779-.722.873-.29 1.475-.639 1.8-1.037.306-.379.467-.854.455-1.34v-23.452c0-.37.3-.67.67-.67H93.24c.333 0 1.348 0 2.232-2.229.67-1.687 1.004-4.214 1.004-7.509 0-3.684-.366-6.334-1.088-7.873-.645-1.372-1.368-2.068-2.146-2.068H81.708c-.37 0-.67-.3-.67-.67V6.698c0-.527-.248-.982-.756-1.39-.592-.473-1.573-.889-2.914-1.233-1.39-.356-3.294-.62-5.662-.786-2.4-.166-5.328-.25-8.701-.25-3.093 0-5.787.068-8.005.2-2.173.135-3.984.35-5.38.641-1.367.286-2.44.637-3.19 1.042-.686.372-1.171.805-1.44 1.294L4.577 77.593zm51.703 8.18H21.693c-.239 0-.46-.128-.58-.335-.12-.207-.12-.462-.001-.67l34.385-60.013c.12-.21.342-.338.582-.338h.202c.37 0 .67.3.67.67v60.026c0 .177-.07.348-.196.474-.126.125-.297.196-.474.196v-.01zm-33.436-1.33H55.61V27.254L22.845 84.442zM168.233 135.96c-8.97 0-16.51-1.562-22.41-4.645-5.9-3.082-10.662-7.603-14.125-13.408-1.751-2.972-3.196-6.114-4.314-9.378-.089-.228-.045-.487.113-.675.158-.187.406-.273.646-.224.24.049.435.225.507.46 1.089 3.177 2.496 6.236 4.2 9.13 3.333 5.593 7.91 9.936 13.594 12.91 5.707 2.982 13.037 4.493 21.789 4.493 8.615 0 15.996-1.562 21.937-4.644 5.942-3.083 10.809-7.563 14.511-13.331 3.72-5.792 6.436-12.914 8.093-21.167 1.658-8.289 2.498-17.708 2.498-28 0-10.362-.67-19.772-2.002-27.969-1.32-8.148-3.69-15.131-7.046-20.759-3.333-5.593-7.924-9.936-13.643-12.908-5.74-2.985-13.086-4.497-21.837-4.497-8.553 0-15.9 1.563-21.84 4.647-5.94 3.084-10.805 7.56-14.509 13.328-3.144 4.9-5.594 10.763-7.28 17.43-.06.233-.237.417-.468.482-.23.065-.478.003-.65-.164-.172-.167-.242-.413-.183-.646 1.723-6.808 4.23-12.806 7.452-17.833 3.832-5.968 8.886-10.609 15.018-13.793C154.415 1.614 161.972 0 170.743 0c8.967 0 16.523 1.563 22.455 4.647 5.932 3.084 10.713 7.603 14.177 13.409 3.442 5.765 5.87 12.915 7.217 21.23 1.341 8.267 2.02 17.75 2.02 28.185 0 10.378-.849 19.888-2.525 28.262-1.683 8.418-4.468 15.688-8.278 21.628-3.831 5.968-8.885 10.61-15.018 13.798-6.133 3.187-13.726 4.801-22.558 4.801zM291.867 134.265c-2.414 0-4.476-.084-6.15-.252-1.673-.167-3.051-.438-4.07-.786-1.116-.382-1.877-.868-2.335-1.49-.455-.624-.694-1.38-.68-2.153V106.8h-49.108c-.92.012-1.836-.116-2.718-.38-.893-.283-1.644-.921-2.232-1.896-.554-.92-.939-2.18-1.194-3.857-.238-1.586-.359-3.727-.359-6.36 0-2.146.051-4.023.152-5.604.086-1.454.257-2.902.513-4.336.232-1.27.579-2.518 1.038-3.725.49-1.26 1.056-2.49 1.693-3.682l.01-.017 40.418-71.38c.39-.708 1.055-1.322 1.971-1.82.866-.466 2.061-.862 3.553-1.174 1.46-.306 3.336-.537 5.574-.67 2.238-.135 4.961-.205 8.087-.205 3.404 0 6.364.086 8.793.254 2.45.173 4.436.45 5.9.825 1.547.402 2.665.884 3.418 1.485.835.67 1.259 1.49 1.259 2.436v77.75h10.85c1.34 0 2.476.954 3.361 2.836.818 1.744 1.216 4.507 1.216 8.448 0 3.467-.37 6.168-1.098 8.006-.804 2.04-1.98 3.076-3.486 3.076h-10.85v22.785c.011.79-.255 1.56-.752 2.176-.492.611-1.285 1.091-2.423 1.475-1.053.346-2.414.609-4.062.783-1.647.174-3.751.237-6.29.237zm-64.268-56.67c-.611 1.141-1.153 2.318-1.624 3.525-.428 1.13-.753 2.297-.97 3.486-.247 1.382-.412 2.777-.494 4.178-.1 1.549-.15 3.406-.15 5.517 0 2.568.116 4.641.345 6.168.219 1.475.56 2.607 1.017 3.362.42.697.906 1.125 1.487 1.308.75.224 1.53.332 2.314.32h49.778c.37 0 .67.3.67.67v23.455c-.014.487.134.965.421 1.359.28.382.865.733 1.688 1.016.923.315 2.192.556 3.772.72 1.628.162 3.651.245 6.014.245 2.494 0 4.566-.083 6.167-.245 1.546-.164 2.816-.402 3.779-.723.873-.29 1.475-.638 1.798-1.036.307-.378.47-.854.457-1.341v-23.45c0-.37.3-.67.67-.67h11.521c.334 0 1.35 0 2.233-2.229.67-1.687 1.004-4.214 1.004-7.509 0-3.684-.366-6.334-1.089-7.873-.645-1.372-1.367-2.068-2.145-2.068h-11.52c-.37 0-.671-.3-.671-.67V6.698c0-.527-.248-.982-.756-1.39-.592-.473-1.573-.889-2.914-1.233-1.39-.356-3.294-.62-5.662-.786-2.4-.166-5.327-.25-8.701-.25-3.093 0-5.787.068-8.005.2-2.173.135-3.984.35-5.38.641-1.367.286-2.44.637-3.19 1.042-.687.372-1.171.805-1.44 1.294l-40.424 71.379zm51.703 8.179h-34.594c-.24 0-.46-.128-.58-.335-.12-.207-.121-.462-.002-.67l34.386-60.017c.12-.209.341-.338.582-.338h.2c.371 0 .671.3.671.67v60.029c0 .367-.296.666-.663.67v-.01zm-33.43-1.341h32.76V27.255l-32.76 57.178z"/>
                <circle cx="141.574" cy="72.08" r="17.345" fill="#00243D"/>
                <path fill="#FFF" d="M133.33 81.785c-.886 0-1.698-.496-2.102-1.285l-2.508-4.895c-.419-.754-.393-1.677.068-2.406.46-.73 1.283-1.149 2.143-1.095.861.055 1.624.574 1.99 1.355l2.508 4.897c.374.731.342 1.605-.087 2.306-.428.7-1.19 1.129-2.011 1.13v-.007zM148.391 84.497c-1.069 0-2.005-.718-2.28-1.751-.276-1.033.177-2.122 1.104-2.655l1.61-.922c1.13-.645 2.568-.253 3.215.875.648 1.128.26 2.568-.867 3.218l-1.609.921c-.357.206-.761.314-1.173.314z"/>
                <circle cx="198.191" cy="78.997" r="6.801" fill="#00243D"/>
                <path fill="#FFF" d="M194.96 82.801c-.348 0-.666-.194-.825-.503l-.983-1.92c-.158-.295-.145-.653.035-.935.18-.283.498-.446.833-.427.334.02.632.218.779.519l.984 1.92c.232.455.052 1.011-.402 1.244-.13.067-.275.102-.421.102zM200.865 83.866c-.419-.001-.785-.283-.893-.687-.109-.405.068-.832.43-1.042l.63-.362c.288-.164.641-.163.928.004.286.166.461.473.46.804-.001.331-.179.637-.466.801l-.63.362c-.14.08-.298.12-.46.12z"/>
                <path fill="#00243D" d="M141.574 98.905c-14.792 0-26.825-12.033-26.825-26.825s12.033-26.825 26.825-26.825S168.4 57.289 168.4 72.08c0 14.79-12.033 26.825-26.825 26.825zm0-52.31c-14.052 0-25.484 11.433-25.484 25.485s11.432 25.484 25.484 25.484c14.052 0 25.484-11.432 25.484-25.484 0-14.052-11.432-25.484-25.484-25.484z"/>
                <path fill="#00243D" d="M141.574 111.175c-18.651 0-34.705-13.175-38.344-31.468-3.639-18.293 6.151-36.609 23.383-43.746 17.231-7.138 37.105-1.11 47.467 14.398 10.362 15.508 8.327 36.176-4.862 49.365-7.315 7.356-17.27 11.479-27.644 11.45zm0-76.848c-20.818 0-37.754 16.936-37.754 37.753 0 20.816 16.936 37.754 37.754 37.754 20.818 0 37.754-16.936 37.754-37.754 0-20.818-16.936-37.753-37.754-37.753z"/>
                <path fill="#00243D" d="M99.292 134.31c-.895.004-1.767-.277-2.491-.804-1.97-1.424-2.289-4.357-.712-6.538l19.14-26.578c.137-.204.373-.317.617-.295.244.022.457.175.555.4.098.224.066.485-.084.678L97.17 127.76c-1.145 1.583-.96 3.676.41 4.667.709.5 1.6.667 2.442.46.947-.223 1.78-.785 2.34-1.581l18.986-26.349c.221-.285.629-.344.922-.133.293.21.366.616.165.916l-18.98 26.357c-.753 1.063-1.869 1.812-3.137 2.105-.337.074-.682.11-1.027.109zM181.986 101.675c-.36 0-.655-.282-.67-.641-.104-1.849.643-3.644 2.028-4.873 1.966-1.8 5.274-2.692 8.427-2.28.36.057.61.39.562.752-.049.361-.376.618-.739.578-2.775-.37-5.658.388-7.343 1.933-1.093.96-1.68 2.371-1.588 3.823.008.177-.055.351-.175.482s-.287.21-.465.218l-.037.008z"/>
                <ellipse cx="168.702" cy="159.064" fill="#C9C9C9" rx="38.937" ry="4.722"/>
            </g>
        </g>
    </g>
</svg>
